<svg width="159" height="50" viewBox="0 0 159 50" fill="none" xmlns="http://www.w3.org/2000/svg">
<path d="M53.4277 35.1054H59.1932L60.8588 28.9555H63.9337L65.8556 35.1054H72.0054L69.443 27.9305L69.9555 27.6743C70.2117 27.6743 70.5961 27.418 70.9805 27.1618C71.4929 26.7774 71.8773 26.5212 72.3898 26.0087C72.7742 25.6243 73.2867 25.1118 73.671 24.3431C74.1835 23.7025 74.4398 22.9337 74.696 22.165C75.2085 20.2432 74.8241 18.7057 73.7991 17.4245C72.646 16.0151 70.9805 15.3745 68.8024 15.3745H58.8088L53.4277 35.1054ZM68.9305 22.165C68.8024 22.6775 68.418 23.19 67.9055 23.5744C67.393 23.9587 66.7524 24.0868 66.1118 24.0868H62.14L63.2931 20.2432H67.1368C67.7774 20.2432 68.2899 20.3713 68.6742 20.7557C68.9305 21.14 69.0586 21.6525 68.9305 22.165ZM82.6396 35.1054H87.8926L91.48 21.2681H86.3552L84.5614 28.3149C84.3052 29.0836 83.9208 29.7242 83.2802 30.2367C82.7677 30.6211 82.1271 30.8773 81.3584 30.8773C80.8459 30.8773 80.3334 30.7492 80.0771 30.2367C79.6928 29.8524 79.6928 29.3399 79.8209 28.8274L81.8709 21.2681H76.746L74.4398 29.5961C74.0554 31.3898 74.1835 32.7992 74.9522 33.8242C75.721 34.8491 76.8741 35.3616 78.5397 35.3616C79.3084 35.3616 80.0771 35.2335 80.974 34.8491C81.7427 34.5929 82.2552 34.2085 82.5115 34.0804C82.7677 33.8242 83.024 33.696 83.1521 33.5679L82.6396 35.1054ZM98.9112 21.2681H93.7863L90.0707 35.1054H95.1956L97.1174 28.1868C97.2456 27.418 97.7581 26.7774 98.2705 26.2649C98.9112 25.7524 99.5518 25.4962 100.192 25.4962C100.833 25.4962 101.345 25.7524 101.602 26.1368C101.858 26.5212 101.858 27.1618 101.73 27.8024L99.808 35.1054H104.933L107.111 26.9055C107.623 25.2399 107.495 23.8306 106.727 22.6775C105.958 21.6525 104.805 21.0119 103.267 21.0119C102.37 21.0119 101.602 21.2681 100.833 21.6525C99.9361 21.9088 99.4236 22.2931 99.1674 22.4212C98.783 22.6775 98.6549 22.8056 98.5268 23.0619L98.9112 21.2681Z" fill="#71B92F"/>
<path d="M113.004 15.3745L107.751 35.1054H113.516L115.054 29.2117H118.897C121.204 29.2117 123.254 28.5711 125.047 27.2899C126.969 25.8806 128.122 24.3431 128.635 22.2931C129.147 20.3713 128.891 18.7057 127.738 17.4245C126.585 16.0151 124.919 15.3745 122.613 15.3745H113.004ZM120.947 20.2432C121.716 20.2432 122.229 20.3713 122.485 20.8838C122.869 21.2681 122.997 21.7806 122.869 22.2931C122.741 22.9337 122.357 23.3181 121.716 23.8306C121.204 24.215 120.563 24.4712 119.922 24.4712H116.335L117.488 20.2432H120.947ZM138.628 35.1054L140.934 26.5212C141.319 24.9837 141.063 23.7025 140.038 22.6775C139.013 21.6525 137.603 21.0119 135.553 21.0119C134.785 21.0119 134.016 21.14 133.247 21.3963C132.478 21.5244 131.838 21.7806 131.325 22.0369C130.813 22.165 130.3 22.5494 129.916 22.8056C129.403 23.0619 129.147 23.3181 129.019 23.4462C128.891 23.5744 128.763 23.7025 128.635 23.7025L130.557 26.2649L131.069 25.8806C131.325 25.6243 131.71 25.4962 132.35 25.2399C132.991 24.9837 133.503 24.8556 134.144 24.8556C134.785 24.8556 135.297 24.9837 135.553 25.2399C135.938 25.4962 135.938 25.8806 135.81 26.2649L131.453 27.0337C129.916 27.418 128.635 27.9305 127.61 28.6992C126.585 29.3399 125.944 30.3648 125.688 31.3898C125.432 32.5429 125.56 33.4398 126.328 34.2085C126.969 34.9773 128.122 35.3616 129.532 35.3616C130.3 35.3616 131.069 35.2335 131.838 34.8491C132.606 34.5929 133.119 34.2085 133.375 34.0804C133.631 33.8241 133.76 33.696 133.888 33.5679L133.503 35.1054H138.628ZM132.094 31.7742C131.197 31.7742 130.941 31.3898 131.069 30.6211C131.197 30.3648 131.325 30.1086 131.71 29.8524C131.966 29.5961 132.35 29.468 132.735 29.3399L135.169 28.9555L135.041 29.3399C134.913 29.9805 134.528 30.6211 133.888 31.0055C133.375 31.5179 132.735 31.7742 132.094 31.7742ZM144.009 35.3616C143.369 36.2585 142.472 36.6428 141.447 36.6428C140.806 36.6428 140.294 36.5147 139.909 36.3866L138.884 40.6146H139.141C139.397 40.7428 139.653 40.8709 140.166 40.8709C140.678 40.999 141.063 40.999 141.575 40.999C142.984 40.999 144.394 40.4865 145.675 39.5897C146.956 38.6928 148.366 37.1553 149.647 35.1054L159 21.2681H153.49L148.622 29.3399L148.109 21.2681H142.6L144.394 34.8491L144.009 35.3616Z" fill="#1F478D"/>
<path fill-rule="evenodd" clip-rule="evenodd" d="M24.5995 0C38.1805 0 49.199 11.0185 49.199 24.5995C49.199 38.1805 38.1805 49.199 24.5995 49.199C11.0185 49.199 0 38.1805 0 24.5995C0 11.0185 11.0185 0 24.5995 0Z" fill="#1F478D"/>
<path fill-rule="evenodd" clip-rule="evenodd" d="M8.45567 30.8776L6.27759 38.5649H16.143L18.7055 28.9558L19.218 27.162C17.8086 27.2902 9.09628 28.3152 8.45567 30.8776Z" fill="#FEFEFE"/>
<path fill-rule="evenodd" clip-rule="evenodd" d="M26.7777 22.1652L22.5496 15.759H13.0686C12.6842 15.759 11.7873 16.1434 12.1717 16.6559L16.1435 22.6776C16.7841 22.037 19.6028 22.1652 21.7809 22.1652H22.8059C24.0871 22.1652 25.4964 22.1652 26.7777 22.1652Z" fill="url(#paint0_linear)"/>
<path fill-rule="evenodd" clip-rule="evenodd" d="M29.0831 38.9491H39.7172C38.9485 38.6928 38.0516 38.0522 37.5392 37.2835L31.6455 28.8274C29.8518 29.3399 28.0581 29.5961 26.2644 29.5961H21.0114L26.6487 37.5397C27.1612 38.3085 28.0581 38.9491 29.0831 38.9491Z" fill="url(#paint1_linear)"/>
<path d="M16.271 9.60934L12.2992 15.503C11.9148 16.0155 11.9148 16.1436 12.0429 16.528C12.2992 15.6311 13.4523 15.7592 13.9648 15.7592H23.4458H25.1114H29.3395C30.4926 15.7592 31.2613 16.0155 31.9019 16.6561C32.5425 17.4248 32.7988 18.0654 32.5425 18.9623C32.2863 19.8591 31.7738 20.6279 30.7488 21.2685C29.7238 21.9091 28.6988 22.1653 27.5457 22.1653H19.8584H19.474C18.1928 22.1653 16.6553 21.9091 15.6304 22.9341L10.2492 28.4433C9.6086 29.084 8.96799 29.7246 8.58362 30.4933C9.09611 30.1089 9.73672 29.5964 10.3773 29.5964H18.5772H19.3459H20.499H22.2927H26.1364C30.1082 29.5964 33.5675 28.5715 36.6424 26.5215C39.5893 24.4715 41.5111 22.0372 42.408 18.9623C43.1767 15.8873 42.5361 13.453 40.6142 11.4031C38.6924 9.3531 35.7456 8.45624 31.7738 8.45624H19.8584C18.5772 8.45624 16.9116 8.71248 16.271 9.60934Z" fill="#FEFEFE"/>
<path fill-rule="evenodd" clip-rule="evenodd" d="M7.94293 32.7995C8.96791 30.4933 16.7834 29.9808 18.449 29.8527L18.5771 29.5964H10.3773C9.35228 29.5964 8.71167 30.1089 8.3273 31.1339L7.94293 32.7995Z" fill="#D9DADA"/>
<defs>
<linearGradient id="paint0_linear" x1="19.4388" y1="22.6231" x2="19.4388" y2="15.7461" gradientUnits="userSpaceOnUse">
<stop stop-color="#A1C527"/>
<stop offset="0.439216" stop-color="#9EC428"/>
<stop offset="0.729412" stop-color="#95C12B"/>
<stop offset="0.831373" stop-color="#46A33A"/>
<stop offset="1" stop-color="#18993C"/>
</linearGradient>
<linearGradient id="paint1_linear" x1="30.3783" y1="38.8692" x2="30.3783" y2="28.8085" gradientUnits="userSpaceOnUse">
<stop stop-color="#A1C527"/>
<stop offset="0.439216" stop-color="#9EC428"/>
<stop offset="0.729412" stop-color="#95C12B"/>
<stop offset="0.831373" stop-color="#46A33A"/>
<stop offset="1" stop-color="#18993C"/>
</linearGradient>
</defs>
</svg>
